<svg width="201" height="86" viewBox="0 0 201 86" fill="none" xmlns="http://www.w3.org/2000/svg">
<path d="M40.7138 64.9048H26.4779L40.7138 43.3772H54.9499L40.7138 64.9048Z" fill="#9333ea"/>
<path d="M35.5052 21.1554H50.0883L35.5052 43.3773H20.9221L35.5052 21.1554Z" fill="#9333ea"/>
<path d="M83.9918 39.883C83.9918 41.203 83.6735 42.4409 83.0369 43.5962C82.424 44.7511 81.4457 45.6823 80.1021 46.3897C78.7818 47.0968 77.1081 47.4505 75.0807 47.4505H70.9431V56.9274H65.9926V32.2449H75.0807C76.9902 32.2449 78.6168 32.5749 79.9604 33.235C81.3045 33.8951 82.3061 34.8027 82.9665 35.9579C83.6502 37.113 83.9918 38.4214 83.9918 39.883ZM74.8683 43.4545C76.2357 43.4545 77.2494 43.1483 77.9097 42.535C78.5697 41.8988 78.8997 41.0147 78.8997 39.883C78.8997 37.4784 77.556 36.2761 74.8683 36.2761H70.9431V43.4545H74.8683Z" fill="#9333ea"/>
<path d="M91.0428 40.3781C91.6794 39.3408 92.5044 38.5274 93.5181 37.9381C94.5555 37.3487 95.7342 37.054 97.0545 37.054V42.2521H95.7458C94.1901 42.2521 93.0114 42.6175 92.2098 43.3486C91.4319 44.0794 91.0428 45.3523 91.0428 47.1676V56.9273H86.0923V37.3369H91.0428V40.3781Z" fill="#9333ea"/>
<path d="M107.673 57.2457C105.787 57.2457 104.09 56.8332 102.581 56.0083C101.073 55.1596 99.8819 53.9688 99.0099 52.4364C98.1612 50.904 97.7366 49.1362 97.7366 47.1322C97.7366 45.1286 98.1728 43.3604 99.0453 41.828C99.941 40.2956 101.155 39.1169 102.688 38.2918C104.22 37.4431 105.929 37.0187 107.815 37.0187C109.701 37.0187 111.41 37.4431 112.942 38.2918C114.475 39.1169 115.677 40.2956 116.55 41.828C117.445 43.3604 117.893 45.1286 117.893 47.1322C117.893 49.1362 117.433 50.904 116.514 52.4364C115.618 53.9688 114.392 55.1596 112.836 56.0083C111.304 56.8332 109.583 57.2457 107.673 57.2457ZM107.673 52.9314C108.569 52.9314 109.406 52.7193 110.184 52.2952C110.986 51.8473 111.622 51.1869 112.094 50.3149C112.565 49.4425 112.801 48.3817 112.801 47.1322C112.801 45.2698 112.306 43.8437 111.316 42.8533C110.349 41.8397 109.159 41.333 107.744 41.333C106.33 41.333 105.139 41.8397 104.173 42.8533C103.23 43.8437 102.758 45.2698 102.758 47.1322C102.758 48.9946 103.218 50.4328 104.137 51.4465C105.08 52.4364 106.259 52.9314 107.673 52.9314Z" fill="#9333ea"/>
<path d="M125.06 53.0022H130.377V56.9274H120.11V29.2037H125.06V53.0022Z" fill="#9333ea"/>
<path d="M134.218 35.0031C133.346 35.0031 132.614 34.732 132.025 34.1898C131.459 33.624 131.176 32.9285 131.176 32.1034C131.176 31.2783 131.459 30.5946 132.025 30.0524C132.614 29.4866 133.346 29.2037 134.218 29.2037C135.09 29.2037 135.809 29.4866 136.375 30.0524C136.964 30.5946 137.259 31.2783 137.259 32.1034C137.259 32.9285 136.964 33.624 136.375 34.1898C135.809 34.732 135.09 35.0031 134.218 35.0031ZM136.657 37.337V56.9274H131.707V37.337H136.657Z" fill="#9333ea"/>
<path d="M150.991 37.054C153.324 37.054 155.21 37.7966 156.649 39.2818C158.086 40.7434 158.806 42.7945 158.806 45.4348V56.9273H153.855V46.1068C153.855 44.5507 153.466 43.3603 152.688 42.535C151.91 41.6863 150.849 41.2621 149.505 41.2621C148.138 41.2621 147.053 41.6863 146.252 42.535C145.474 43.3603 145.085 44.5507 145.085 46.1068V56.9273H140.134V37.3369H145.085V39.7769C145.745 38.9282 146.582 38.2681 147.596 37.7966C148.633 37.3016 149.765 37.054 150.991 37.054Z" fill="#9333ea"/>
<path d="M180.31 46.7081C180.31 47.4151 180.263 48.0517 180.169 48.6175H165.847C165.965 50.032 166.46 51.1399 167.332 51.9415C168.205 52.7431 169.277 53.1439 170.55 53.1439C172.389 53.1439 173.698 52.3539 174.476 50.7745H179.815C179.249 52.6606 178.165 54.2163 176.562 55.4425C174.959 56.6445 172.99 57.2457 170.656 57.2457C168.771 57.2457 167.073 56.8332 165.564 56.0083C164.079 55.1596 162.912 53.9688 162.063 52.4364C161.238 50.904 160.826 49.1362 160.826 47.1322C160.826 45.1049 161.238 43.325 162.063 41.7926C162.888 40.2603 164.044 39.0815 165.529 38.2564C167.014 37.4313 168.723 37.0187 170.656 37.0187C172.519 37.0187 174.181 37.4195 175.643 38.221C177.127 39.0226 178.271 40.1659 179.073 41.6513C179.898 43.1129 180.31 44.7982 180.31 46.7081ZM175.183 45.2936C175.159 44.0203 174.699 43.0067 173.803 42.2521C172.908 41.4743 171.812 41.0855 170.515 41.0855C169.289 41.0855 168.252 41.4626 167.403 42.2171C166.578 42.9479 166.071 43.9733 165.882 45.2936H175.183Z" fill="#9333ea"/>
</svg>
